<svg xmlns="http://www.w3.org/2000/svg" width="1200" height="920" viewBox="0 0 1200 920" role="img" aria-labelledby="title desc">
  <title id="title">Main panel overview</title>
  <desc id="desc">Illustration of the Zoom Transcript Downloader panel highlighting Save all available, status, destination, settings, and Help and About.</desc>
  <rect width="1200" height="920" fill="#eef2f7"/>
  <rect x="250" y="84" width="700" height="660" rx="28" fill="#111827" stroke="#374151" stroke-width="4"/>
  <text x="292" y="138" font-family="Arial, sans-serif" font-size="30" font-weight="700" fill="#f9fafb">Zoom Transcript Downloader</text>
  <rect x="700" y="108" width="208" height="34" rx="17" fill="#1f2937" stroke="#4b5563" stroke-width="2"/>
  <text x="726" y="131" font-family="Arial, sans-serif" font-size="18" fill="#dbe5f4">14/82 downloadable</text>
  <circle cx="884" cy="168" r="22" fill="#374151"/>
  <text x="876" y="176" font-family="Arial, sans-serif" font-size="24" fill="#ffffff">?</text>
  <circle cx="832" cy="168" r="22" fill="#374151"/>
  <text x="824" y="176" font-family="Arial, sans-serif" font-size="24" fill="#ffffff">⚙</text>
  <rect x="292" y="202" width="250" height="60" rx="16" fill="#2563eb"/>
  <text x="330" y="240" font-family="Arial, sans-serif" font-size="28" font-weight="700" fill="#ffffff">Save all available</text>
  <rect x="566" y="202" width="130" height="60" rx="16" fill="#6b7280"/>
  <text x="606" y="240" font-family="Arial, sans-serif" font-size="28" font-weight="700" fill="#ffffff">Stop</text>
  <rect x="292" y="292" width="616" height="50" rx="14" fill="#1f2937" stroke="#4b5563" stroke-width="2"/>
  <text x="314" y="325" font-family="Arial, sans-serif" font-size="22" fill="#d1d5db">Saving to: Downloads/Zoom Transcripts/ZoomTranscripts-08192026</text>
  <rect x="292" y="370" width="616" height="250" rx="18" fill="#e5e7eb" stroke="#9ca3af" stroke-width="2"/>
  <text x="326" y="422" font-family="Courier New, monospace" font-size="23" fill="#111827">{</text>
  <text x="356" y="422" font-family="Courier New, monospace" font-size="23" fill="#111827">"pagesVisited": 6,</text>
  <text x="356" y="456" font-family="Courier New, monospace" font-size="23" fill="#111827">"planned": 82,</text>
  <text x="356" y="490" font-family="Courier New, monospace" font-size="23" fill="#111827">"downloaded": 82,</text>
  <text x="356" y="524" font-family="Courier New, monospace" font-size="23" fill="#111827">"skippedUnavailable": 4</text>
  <text x="326" y="558" font-family="Courier New, monospace" font-size="23" fill="#111827">}</text>
  <rect x="292" y="646" width="170" height="36" rx="18" fill="#f9fafb" stroke="#4b5563" stroke-width="2"/>
  <text x="326" y="670" font-family="Arial, sans-serif" font-size="20" fill="#111827">Show debug</text>
  <rect x="70" y="120" width="132" height="88" rx="20" fill="#ffffff" stroke="#cfd9ea" stroke-width="3"/>
  <text x="92" y="158" font-family="Arial, sans-serif" font-size="22" font-weight="700" fill="#1c2c42">1</text>
  <text x="122" y="158" font-family="Arial, sans-serif" font-size="22" fill="#1c2c42">Click Save all available</text>
  <path d="M202 168 L280 220" stroke="#1f6fff" stroke-width="5" fill="none" stroke-linecap="round"/>
  <polygon points="291,228 265,214 284,196" fill="#1f6fff"/>
  <rect x="942" y="260" width="196" height="92" rx="20" fill="#ffffff" stroke="#cfd9ea" stroke-width="3"/>
  <text x="964" y="298" font-family="Arial, sans-serif" font-size="22" font-weight="700" fill="#1c2c42">2</text>
  <text x="994" y="298" font-family="Arial, sans-serif" font-size="22" fill="#1c2c42">Review status</text>
  <text x="994" y="330" font-family="Arial, sans-serif" font-size="22" fill="#1c2c42">and results here</text>
  <path d="M942 352 L862 398" stroke="#1f6fff" stroke-width="5" fill="none" stroke-linecap="round"/>
  <polygon points="846,406 864,382 878,406" fill="#1f6fff"/>
  <rect x="944" y="100" width="190" height="106" rx="20" fill="#ffffff" stroke="#cfd9ea" stroke-width="3"/>
  <text x="966" y="138" font-family="Arial, sans-serif" font-size="22" font-weight="700" fill="#1c2c42">3</text>
  <text x="996" y="138" font-family="Arial, sans-serif" font-size="22" fill="#1c2c42">Open Settings</text>
  <text x="996" y="170" font-family="Arial, sans-serif" font-size="22" fill="#1c2c42">or Help &amp; About</text>
  <path d="M944 188 L874 168" stroke="#1f6fff" stroke-width="5" fill="none" stroke-linecap="round"/>
  <polygon points="856,164 884,156 878,182" fill="#1f6fff"/>
  <rect x="72" y="268" width="160" height="86" rx="20" fill="#ffffff" stroke="#cfd9ea" stroke-width="3"/>
  <text x="94" y="306" font-family="Arial, sans-serif" font-size="22" font-weight="700" fill="#1c2c42">4</text>
  <text x="124" y="306" font-family="Arial, sans-serif" font-size="22" fill="#1c2c42">See where</text>
  <text x="124" y="338" font-family="Arial, sans-serif" font-size="22" fill="#1c2c42">files will go</text>
  <path d="M232 320 L282 320" stroke="#1f6fff" stroke-width="5" fill="none" stroke-linecap="round"/>
  <polygon points="296,320 270,308 270,332" fill="#1f6fff"/>
</svg>
